<?xml version="1.0" standalone="no"?>
<!DOCTYPE svg PUBLIC "-//W3C//DTD SVG 20010904//EN"
 "http://www.w3.org/TR/2001/REC-SVG-20010904/DTD/svg10.dtd">
<svg version="1.0" xmlns="http://www.w3.org/2000/svg"
 width="400.000000pt" height="400.000000pt" viewBox="0 0 400.000000 400.000000"
 preserveAspectRatio="xMidYMid meet">

<g transform="translate(0.000000,400.000000) scale(0.100000,-0.100000)"
fill="#000000" stroke="none">
<path d="M1970 3487 c-221 -66 -377 -225 -440 -447 -25 -90 -40 -310 -21 -310
19 0 360 203 535 317 161 107 297 224 338 292 12 20 23 38 24 40 2 2 51 -34
111 -80 482 -373 787 -738 911 -1091 49 -138 65 -229 65 -373 1 -104 -3 -148
-22 -220 -48 -187 -141 -344 -296 -501 -247 -248 -615 -419 -1060 -491 -171
-28 -596 -25 -763 5 -283 50 -496 156 -672 332 -41 41 -61 57 -44 35 181 -230
532 -404 896 -444 123 -14 429 -14 573 -1 700 64 1249 407 1445 904 47 119 70
228 70 332 0 379 -223 806 -640 1225 -169 170 -430 379 -546 437 -128 65 -322
81 -464 39z"/>
<path d="M1793 2285 c-32 -23 -48 -79 -33 -116 17 -39 46 -59 90 -59 44 0 73
20 90 59 26 63 -20 131 -87 131 -21 0 -48 -7 -60 -15z"/>
<path d="M1035 2278 c-12 -37 -162 -878 -157 -883 8 -7 152 -6 152 1 0 4 11
57 24 118 14 61 30 138 36 171 7 33 17 66 22 73 11 13 76 16 95 4 6 -4 29 -46
51 -92 147 -318 178 -367 249 -396 36 -16 113 -19 113 -5 0 8 -172 367 -231
483 l-19 37 53 24 c28 14 67 39 85 56 66 62 108 206 83 284 -17 49 -79 103
-142 121 -69 21 -407 23 -414 4z m324 -124 c17 -4 43 -17 57 -31 24 -22 26
-30 22 -79 -9 -106 -65 -147 -210 -152 -54 -3 -98 -2 -98 1 0 10 41 221 46
239 5 16 16 19 125 26 15 1 40 -1 58 -4z"/>
<path d="M2243 2051 c-107 -36 -197 -118 -246 -221 -28 -58 -31 -75 -31 -155
0 -110 25 -175 88 -233 60 -55 127 -75 232 -70 46 2 86 7 90 10 3 4 0 32 -7
62 l-12 56 -61 0 c-125 0 -170 51 -163 185 4 92 26 145 81 192 47 42 95 56
175 51 l68 -3 32 48 c18 27 30 55 28 62 -14 35 -188 45 -274 16z"/>
<path d="M2779 2055 c-160 -44 -267 -160 -309 -335 -53 -219 44 -363 234 -348
61 5 107 21 159 55 27 18 27 18 51 -11 20 -26 31 -30 86 -34 57 -4 63 -3 56
13 -3 10 -9 56 -12 104 -6 75 -1 113 35 295 22 115 41 219 41 231 0 19 -8 24
-57 34 -73 14 -225 13 -284 -4z m171 -137 c0 -42 -31 -194 -53 -257 -14 -41
-37 -81 -62 -109 -38 -41 -46 -45 -98 -50 -53 -4 -58 -2 -88 27 -31 31 -31 34
-27 106 4 57 13 90 40 148 52 108 123 156 236 157 47 0 52 -2 52 -22z"/>
<path d="M1731 2018 c9 -34 2 -87 -61 -418 -42 -216 -41 -208 -27 -213 7 -2
40 -2 75 1 53 4 63 7 67 26 3 11 26 120 51 241 25 121 53 259 63 308 l18 87
-98 0 -98 0 10 -32z"/>
</g>
</svg>
